<svg width="163" height="158" viewBox="0 0 163 158" fill="none" xmlns="http://www.w3.org/2000/svg">
<circle cx="83.5" cy="79.5" r="61.5" fill="#376AED"/>
<path d="M72 75.0556C72 69.8439 72 67.2381 73.318 65.6191C74.636 64 76.7574 64 81 64H87C91.2426 64 93.364 64 94.682 65.6191C96 67.2381 96 69.8439 96 75.0556V87.6362C96 92.5804 96 95.0525 94.7336 95.8086C93.4671 96.5648 91.8847 95.0374 88.7198 91.9828L87.7069 91.0052C85.9274 89.2876 85.0376 88.4288 84 88.4288C82.9624 88.4288 82.0726 89.2876 80.2931 91.0052L79.2802 91.9828C76.1153 95.0374 74.5329 96.5648 73.2664 95.8086C72 95.0525 72 92.5804 72 87.6362V75.0556Z" fill="white"/>
<circle cx="17" cy="9" r="9" fill="#376AED"/>
<circle cx="156.5" cy="24.5" r="6.5" fill="#376AED"/>
<circle cx="93.5" cy="4.5" r="2.5" fill="#376AED"/>
<circle cx="1" cy="66" r="1" fill="#376AED"/>
<circle cx="8.5" cy="116.5" r="4.5" fill="#376AED"/>
<circle cx="54.5" cy="154.5" r="3.5" fill="#376AED"/>
<circle cx="145.5" cy="140.5" r="2.5" fill="#376AED"/>
<circle cx="152.5" cy="96.5" r="2.5" fill="#376AED"/>
<circle cx="107" cy="150" r="1" fill="#376AED"/>
</svg>
