<svg width="24" height="24" viewBox="0 0 24 24" fill="none" xmlns="http://www.w3.org/2000/svg">
<path d="M17.1748 6.24565C16.8386 5.91604 16.2959 5.91843 15.9626 6.251C15.6294 6.58357 15.6318 7.12038 15.968 7.45L17.9829 9.42522C18.8006 10.2268 19.3615 10.7785 19.741 11.246C19.8644 11.3979 19.9606 11.5317 20.0353 11.6522L2.85714 11.6522C2.38376 11.6522 2 12.0318 2 12.5C2 12.9682 2.38376 13.3478 2.85714 13.3478L20.0353 13.3478C19.9606 13.4683 19.8644 13.6021 19.741 13.754C19.3615 14.2215 18.8006 14.7731 17.9829 15.5748L15.968 17.55C15.6318 17.8796 15.6294 18.4164 15.9626 18.749C16.2959 19.0816 16.8386 19.084 17.1748 18.7543L19.2259 16.7435C19.9985 15.9862 20.6299 15.3672 21.0777 14.8157C21.5433 14.2422 21.8804 13.6601 21.9704 12.9614C21.9901 12.8082 22 12.6541 22 12.5C22 12.3459 21.9901 12.1918 21.9704 12.0386C21.8804 11.3399 21.5433 10.7578 21.0777 10.1843C20.6299 9.63275 19.9985 9.01378 19.2259 8.25645L17.1748 6.24565Z" fill="white"/>
</svg>
