<svg width="24" height="24" viewBox="0 0 24 24" fill="none" xmlns="http://www.w3.org/2000/svg">
<path d="M10.4633 14.7415C10.4101 14.702 10.1828 14.5527 9.99575 14.4135C8.81967 13.598 6.89467 11.4703 6.30708 10.3567C6.21267 10.1876 6.01283 9.76006 6 9.53161C6 9.31271 6.066 9.10404 6.19983 8.90492C6.38683 8.6567 6.68108 8.45757 7.0285 8.34847C7.26958 8.27823 7.991 8.16912 8.00383 8.16912C8.79308 8.06001 10.0755 8 11.4927 8C12.8429 8 14.0731 8.06001 14.8743 8.14934C14.8871 8.15957 15.7836 8.26868 16.0907 8.38802C16.6517 8.60692 17 9.03449 17 9.49206V9.53161C16.9862 9.82962 16.6379 10.4563 16.6251 10.4563C16.0366 11.5099 14.206 13.5884 12.9896 14.4238C12.9896 14.4238 12.677 14.659 12.4818 14.7613C12.2013 14.9209 11.8538 15 11.5064 15C11.1187 15 10.7575 14.9107 10.4633 14.7415Z" fill="#0D253C"/>
</svg>
