<svg width="24" height="24" viewBox="0 0 24 24" fill="none" xmlns="http://www.w3.org/2000/svg">
<path d="M13.7578 6.45C14.0787 6.12038 14.081 5.58357 13.7629 5.251C13.4448 4.91843 12.9268 4.91604 12.6059 5.24565L10.648 7.25646C9.91055 8.01379 9.30785 8.63275 8.88043 9.18426C8.43596 9.75776 8.11421 10.3399 8.02826 11.0386C7.99058 11.345 7.99058 11.655 8.02826 11.9614C8.11421 12.6601 8.43596 13.2422 8.88043 13.8157C9.30785 14.3672 9.91054 14.9862 10.648 15.7435L12.6059 17.7543C12.9268 18.084 13.4448 18.0816 13.7629 17.749C14.081 17.4164 14.0787 16.8796 13.7578 16.55L11.8345 14.5748C11.054 13.7732 10.5186 13.2215 10.1563 12.754C9.80436 12.2999 9.68363 12.0082 9.6515 11.747C9.63132 11.583 9.63132 11.417 9.6515 11.253C9.68363 10.9918 9.80436 10.7001 10.1563 10.246C10.5186 9.77855 11.054 9.22685 11.8345 8.42522L13.7578 6.45Z" fill="#0D253C"/>
</svg>
