<svg width="15" height="14" viewBox="0 0 15 14" fill="none" xmlns="http://www.w3.org/2000/svg">
<path fill-rule="evenodd" clip-rule="evenodd" d="M14.673 1.63803C15 2.27976 15 3.11984 15 4.8V6V11V12.9136C15 13.3145 14.5153 13.5153 14.2318 13.2318L12.2929 11.2929C12.1054 11.1054 11.851 11 11.5858 11H4.8C3.11984 11 2.27976 11 1.63803 10.673C1.07354 10.3854 0.6146 9.92646 0.326981 9.36197C0 8.72024 0 7.88016 0 6.2V4.8C0 3.11984 0 2.27976 0.326981 1.63803C0.6146 1.07354 1.07354 0.614601 1.63803 0.32698C2.27976 0 3.11984 0 4.8 0H10.2C11.8802 0 12.7202 0 13.362 0.32698C13.9265 0.614601 14.3854 1.07354 14.673 1.63803Z" fill="#0D253C"/>
<path d="M11 4L4 4" stroke="white" stroke-linecap="round" stroke-linejoin="round"/>
<path d="M11 7L6 7" stroke="white" stroke-linecap="round" stroke-linejoin="round"/>
</svg>
