<svg width="24" height="24" viewBox="0 0 24 24" fill="none" xmlns="http://www.w3.org/2000/svg">
<path fill-rule="evenodd" clip-rule="evenodd" d="M17.29 14.8814L17.5224 13.2118C17.5939 12.6981 17.6592 12.2285 17.7173 11.7977C17.8367 10.9125 17.8964 10.4698 17.6317 10.1671C17.367 9.86428 16.9121 9.86429 16.0023 9.86429H7.49773C6.5879 9.86429 6.13299 9.86428 5.8683 10.1671C5.60362 10.4698 5.66331 10.9125 5.7827 11.7977C5.84081 12.2287 5.90612 12.698 5.97763 13.2118L6.20999 14.8814C6.46252 16.696 6.58879 17.6033 6.85651 18.332C7.35716 19.6947 8.22259 20.7096 9.25553 21.1455C9.8079 21.3786 10.4553 21.3786 11.75 21.3786C13.0447 21.3786 13.6921 21.3786 14.2445 21.1455C15.2774 20.7096 16.1429 19.6947 16.6435 18.332C16.9112 17.6033 17.0375 16.696 17.29 14.8814ZM10.6429 11.6357C10.6429 11.2688 10.3454 10.9714 9.97857 10.9714C9.6117 10.9714 9.31429 11.2688 9.31429 11.6357V18.7214C9.31429 19.0883 9.6117 19.3857 9.97857 19.3857C10.3454 19.3857 10.6429 19.0883 10.6429 18.7214V11.6357ZM14.1857 11.6357C14.1857 11.2688 13.8883 10.9714 13.5214 10.9714C13.1546 10.9714 12.8571 11.2688 12.8571 11.6357V18.7214C12.8571 19.0883 13.1546 19.3857 13.5214 19.3857C13.8883 19.3857 14.1857 19.0883 14.1857 18.7214V11.6357Z" fill="#0D253C"/>
<path d="M11.75 3C9.42646 3 7.54286 4.8836 7.54286 7.20714V7.42857H4.66429C4.29741 7.42857 4 7.72598 4 8.09286C4 8.45973 4.29741 8.75714 4.66429 8.75714H18.8357C19.2026 8.75714 19.5 8.45973 19.5 8.09286C19.5 7.72598 19.2026 7.42857 18.8357 7.42857H15.9571V7.20714C15.9571 4.8836 14.0735 3 11.75 3Z" fill="#0D253C"/>
</svg>
