<svg width="18" height="18" viewBox="0 0 18 18" fill="none" xmlns="http://www.w3.org/2000/svg">
<path fill-rule="evenodd" clip-rule="evenodd" d="M15 9C15 12.3137 12.3137 15 9 15C5.68629 15 3 12.3137 3 9C3 5.68629 5.68629 3 9 3C12.3137 3 15 5.68629 15 9ZM9.93512 6.39683C9.35194 5.61926 8.13545 5.81667 7.82809 6.73875L7.62691 7.3423C7.54832 7.57808 7.29347 7.7055 7.0577 7.62691C6.82192 7.54832 6.6945 7.29347 6.77309 7.0577L6.97428 6.45415C7.51122 4.84332 9.63634 4.49846 10.6551 5.85683C11.2519 6.65253 11.2103 7.75735 10.5553 8.50589L10.0038 9.1362C9.64678 9.5442 9.45 10.0679 9.45 10.61V10.8C9.45 11.0485 9.24853 11.25 9 11.25C8.75147 11.25 8.55 11.0485 8.55 10.8V10.61C8.55 9.8499 8.8259 9.1156 9.32646 8.54354L9.87798 7.91323C10.2529 7.48475 10.2767 6.85231 9.93512 6.39683ZM9 13.2C9.33137 13.2 9.6 12.9314 9.6 12.6C9.6 12.2686 9.33137 12 9 12C8.66863 12 8.4 12.2686 8.4 12.6C8.4 12.9314 8.66863 13.2 9 13.2Z" fill="#376AED"/>
</svg>
