<svg width="18" height="18" viewBox="0 0 18 18" fill="none" xmlns="http://www.w3.org/2000/svg">
<path d="M7.28968 8.63478C6.84793 8.19548 6.57447 7.58712 6.57447 6.91489C6.57447 6.24267 6.84793 5.63431 7.28968 5.195C7.03535 5.07012 6.74927 5 6.44681 5C5.38924 5 4.53191 5.85733 4.53191 6.91489C4.53191 7.97246 5.38924 8.82979 6.44681 8.82979C6.74927 8.82979 7.03535 8.75966 7.28968 8.63478Z" fill="#376AED"/>
<path d="M7.08511 6.91489C7.08511 5.85733 7.94243 5 9 5C10.0576 5 10.9149 5.85733 10.9149 6.91489C10.9149 7.97246 10.0576 8.82979 9 8.82979C7.94243 8.82979 7.08511 7.97246 7.08511 6.91489Z" fill="#376AED"/>
<path d="M10.7103 5.195C11.1521 5.63431 11.4255 6.24267 11.4255 6.91489C11.4255 7.58712 11.1521 8.19548 10.7103 8.63478C10.9646 8.75966 11.2507 8.82979 11.5532 8.82979C12.6108 8.82979 13.4681 7.97246 13.4681 6.91489C13.4681 5.85733 12.6108 5 11.5532 5C11.2507 5 10.9646 5.07012 10.7103 5.195Z" fill="#376AED"/>
<path d="M5.55319 11.5106C5.55319 10.4531 6.41052 9.59574 7.46809 9.59574H10.5319C11.5895 9.59574 12.4468 10.4531 12.4468 11.5106C12.4468 12.5682 11.5895 13.4255 10.5319 13.4255H7.46809C6.41052 13.4255 5.55319 12.5682 5.55319 11.5106Z" fill="#376AED"/>
<path d="M3 11C3 9.94243 3.85733 9.08511 4.91489 9.08511H7.46809C6.1285 9.08511 5.04255 10.1711 5.04255 11.5106C5.04255 12.034 5.2083 12.5186 5.49015 12.9149H4.91489C3.85733 12.9149 3 12.0576 3 11Z" fill="#376AED"/>
<path d="M12.9574 11.5106C12.9574 12.034 12.7917 12.5186 12.5098 12.9149H13.0851C14.1427 12.9149 15 12.0576 15 11C15 9.94243 14.1427 9.08511 13.0851 9.08511H10.5319C11.8715 9.08511 12.9574 10.1711 12.9574 11.5106Z" fill="#376AED"/>
</svg>
