<svg width="24" height="25" viewBox="0 0 24 25" fill="none" xmlns="http://www.w3.org/2000/svg">
<g clip-path="url(#clip0_143_2371)">
<path d="M6.34574 21.7025C4.34848 21.5293 2.78125 19.8535 2.78125 17.8113V11.2382C2.78125 10.0198 3.34977 8.87115 4.31855 8.13225L9.63105 4.08033C11.0301 3.01326 12.9699 3.01326 14.3689 4.08033L14.7283 4.35443C13.7689 4.25975 12.7819 4.51943 11.9748 5.13502L5.65672 9.95393C5.32164 10.2095 5.125 10.6068 5.125 11.0282V18.866C5.125 19.9831 5.59402 20.9905 6.34574 21.7025Z" fill="#D7DDEC"/>
<path d="M17.3125 22.4991H6.6875C4.10281 22.4991 2 20.3962 2 17.8116V11.2385C2 9.78569 2.68965 8.39237 3.84477 7.51132L9.15727 3.4594C10.8311 2.1828 13.1689 2.1828 14.8427 3.4594L20.1552 7.51132C21.3104 8.39233 22 9.78565 22 11.2385V17.8116C22 20.3962 19.8972 22.4991 17.3125 22.4991ZM12 4.06347C11.3313 4.06347 10.6629 4.2762 10.1048 4.70175L4.79234 8.75366C4.02227 9.34104 3.5625 10.2699 3.5625 11.2385V17.8116C3.5625 19.5347 4.96438 20.9366 6.6875 20.9366H17.3125C19.0356 20.9366 20.4375 19.5347 20.4375 17.8116V11.2385C20.4375 10.27 19.9777 9.34104 19.2077 8.7537L13.8952 4.70179C13.3373 4.27632 12.6686 4.06347 12 4.06347Z" fill="#7B8BB2"/>
<path d="M14.8125 18.0847H9.22656C7.93422 18.0847 6.88281 17.0333 6.88281 15.741V12.8113C6.88281 11.5189 7.93422 10.4675 9.22656 10.4675H10.3144C10.9799 10.4675 11.5865 10.7298 12.0361 11.1564C12.4843 10.7296 13.09 10.4675 13.7557 10.4675H14.8125C16.1048 10.4675 17.1562 11.5189 17.1562 12.8113V15.741C17.1562 17.0333 16.1048 18.0847 14.8125 18.0847ZM9.22656 12.03C8.79578 12.03 8.44531 12.3805 8.44531 12.8113V15.741C8.44531 16.1718 8.79578 16.5222 9.22656 16.5222H14.8125C15.2433 16.5222 15.5938 16.1718 15.5938 15.741V12.8113C15.5938 12.3805 15.2433 12.03 14.8125 12.03H13.7557C13.2402 12.03 12.8207 12.451 12.8203 12.9687V12.9706V14.4128C12.8203 14.8443 12.4705 15.1941 12.0391 15.1941C11.6076 15.1941 11.2578 14.8443 11.2578 14.4128V12.9715C11.255 12.4523 10.832 12.03 10.3144 12.03H9.22656Z" fill="#D7DDEC"/>
</g>
<defs>
<clipPath id="clip0_143_2371">
<rect width="20" height="20" fill="white" transform="translate(2 2.5)"/>
</clipPath>
</defs>
</svg>
