<svg width="14" height="13" viewBox="0 0 14 13" fill="none" xmlns="http://www.w3.org/2000/svg">
<path d="M7.09799 12.1798L7.09231 12.1856L7.09229 12.1856C7.04709 12.2324 7.02219 12.258 7.00339 12.2761C7.00217 12.2772 7.00104 12.2783 7 12.2793C6.99896 12.2783 6.99783 12.2772 6.99661 12.2761C6.9778 12.258 6.9529 12.2323 6.90769 12.1856L1.89992 7.01093C0.666565 5.73646 0.657957 3.71604 1.8804 2.43111L2.04419 2.25896C3.24006 1.00196 5.29473 1.18561 6.24872 2.63477C6.60411 3.17461 7.39589 3.17461 7.75128 2.63477C8.70527 1.18561 10.7599 1.00196 11.9558 2.25896L12.1196 2.43111C13.342 3.71604 13.3334 5.73646 12.1001 7.01093L7.09799 12.1798Z" fill="#0D253C" stroke="#0D253C"/>
</svg>
