<svg width="18" height="18" viewBox="0 0 18 18" fill="none" xmlns="http://www.w3.org/2000/svg">
<path d="M8.16667 10.4167C8.16667 9.95643 8.53976 9.58333 9 9.58333C9.46024 9.58333 9.83333 9.95643 9.83333 10.4167C9.83333 10.8769 9.46024 11.25 9 11.25C8.53976 11.25 8.16667 10.8769 8.16667 10.4167Z" fill="#376AED"/>
<path fill-rule="evenodd" clip-rule="evenodd" d="M9 1.25C6.88291 1.25 5.16667 2.96624 5.16667 5.08333V5.82581C5.16667 5.87035 5.17249 5.91353 5.18342 5.95462C4.22602 6.30642 3.47978 7.07879 3.16314 8.05328C3 8.55539 3 9.17581 3 10.4167C3 11.6575 3 12.2779 3.16314 12.7801C3.49287 13.7948 4.28848 14.5905 5.30328 14.9202C5.80538 15.0833 6.42581 15.0833 7.66665 15.0833H10.3333C11.5742 15.0833 12.1946 15.0833 12.6967 14.9202C13.7115 14.5905 14.5071 13.7948 14.8369 12.7801C15 12.2779 15 11.6575 15 10.4167C15 9.17581 15 8.55539 14.8369 8.05328C14.5202 7.07879 13.774 6.30642 12.8166 5.95462C12.8275 5.91353 12.8333 5.87035 12.8333 5.82581V5.08333C12.8333 2.96624 11.1171 1.25 9 1.25ZM10.3333 5.75C10.9769 5.75 11.4535 5.75 11.8333 5.77276V5.08333C11.8333 3.51853 10.5648 2.25 9 2.25C7.43519 2.25 6.16667 3.51853 6.16667 5.08333V5.77276C6.54649 5.75 7.02314 5.75 7.66667 5.75H10.3333ZM7.16667 10.4167C7.16667 9.40414 7.98748 8.58333 9 8.58333C10.0125 8.58333 10.8333 9.40414 10.8333 10.4167C10.8333 11.4292 10.0125 12.25 9 12.25C7.98748 12.25 7.16667 11.4292 7.16667 10.4167Z" fill="#376AED"/>
</svg>
