<svg width="174" height="81" viewBox="0 0 174 81" fill="none" xmlns="http://www.w3.org/2000/svg">
<rect width="150" height="45" rx="8" fill="#376AED"/>
<path d="M8 8.69959H17.5611C18.753 8.69959 19.8542 8.8421 20.8647 9.12712C21.9012 9.41214 22.7821 9.83967 23.5076 10.4097C24.2591 10.9538 24.842 11.6664 25.2566 12.5474C25.6971 13.4024 25.9173 14.4129 25.9173 15.5789C25.9173 17.1595 25.4769 18.455 24.5959 19.4655C23.7149 20.4502 22.5748 21.1757 21.1757 21.6421V21.7198C22.0048 21.7716 22.7821 21.9919 23.5076 22.3805C24.2331 22.7433 24.855 23.2356 25.3732 23.8574C25.9173 24.4534 26.3449 25.153 26.6558 25.9562C26.9667 26.7594 27.1222 27.6275 27.1222 28.5602C27.1222 29.804 26.8631 30.9052 26.3449 31.8639C25.8526 32.7967 25.1659 33.587 24.285 34.2347C23.404 34.8825 22.3805 35.3748 21.2145 35.7116C20.0485 36.0485 18.7919 36.2169 17.4445 36.2169H8V8.69959ZM11.7312 20.1263H16.8226C17.5222 20.1263 18.183 20.0615 18.8048 19.9319C19.4267 19.7765 19.9708 19.5303 20.4372 19.1935C20.9036 18.8566 21.2663 18.4291 21.5255 17.9109C21.8105 17.3927 21.953 16.7579 21.953 16.0064C21.953 14.9182 21.6032 13.9724 20.9036 13.1692C20.204 12.366 19.1028 11.9644 17.6 11.9644H11.7312V20.1263ZM11.7312 32.9521H17.2113C17.7813 32.9521 18.4032 32.9003 19.0769 32.7967C19.7765 32.6671 20.4242 32.4339 21.0202 32.0971C21.6161 31.7343 22.1214 31.255 22.536 30.659C22.9506 30.0631 23.1578 29.2728 23.1578 28.2882C23.1578 26.6558 22.6267 25.438 21.5643 24.6348C20.502 23.8056 19.0639 23.391 17.2502 23.391H11.7312V32.9521Z" fill="white"/>
<path d="M43.4156 8.69959H47.1467V32.7189H59.7783V36.2169H43.4156V8.69959Z" fill="white"/>
<path d="M87.1357 36.9165C85.037 36.9165 83.1066 36.5537 81.3447 35.8282C79.5827 35.0768 78.0669 34.0533 76.7973 32.7578C75.5536 31.4623 74.569 29.9335 73.8435 28.1716C73.1439 26.4096 72.7941 24.5052 72.7941 22.4582C72.7941 20.4113 73.1439 18.5068 73.8435 16.7449C74.569 14.983 75.5536 13.4542 76.7973 12.1587C78.0669 10.8631 79.5827 9.85262 81.3447 9.12712C83.1066 8.37571 85.037 8 87.1357 8C89.2345 8 91.1649 8.37571 92.9268 9.12712C94.6887 9.85262 96.1916 10.8631 97.4353 12.1587C98.7049 13.4542 99.6895 14.983 100.389 16.7449C101.115 18.5068 101.477 20.4113 101.477 22.4582C101.477 24.5052 101.115 26.4096 100.389 28.1716C99.6895 29.9335 98.7049 31.4623 97.4353 32.7578C96.1916 34.0533 94.6887 35.0768 92.9268 35.8282C91.1649 36.5537 89.2345 36.9165 87.1357 36.9165ZM87.1357 33.4185C88.7163 33.4185 90.1414 33.1335 91.411 32.5635C92.6807 31.9675 93.7689 31.1772 94.6758 30.1926C95.5827 29.208 96.2823 28.055 96.7746 26.7335C97.2669 25.3862 97.513 23.9611 97.513 22.4582C97.513 20.9554 97.2669 19.5433 96.7746 18.2218C96.2823 16.8745 95.5827 15.7085 94.6758 14.7239C93.7689 13.7392 92.6807 12.9619 91.411 12.3919C90.1414 11.7959 88.7163 11.498 87.1357 11.498C85.5552 11.498 84.1301 11.7959 82.8605 12.3919C81.5908 12.9619 80.5026 13.7392 79.5957 14.7239C78.6888 15.7085 77.9892 16.8745 77.4969 18.2218C77.0046 19.5433 76.7585 20.9554 76.7585 22.4582C76.7585 23.9611 77.0046 25.3862 77.4969 26.7335C77.9892 28.055 78.6888 29.208 79.5957 30.1926C80.5026 31.1772 81.5908 31.9675 82.8605 32.5635C84.1301 33.1335 85.5552 33.4185 87.1357 33.4185Z" fill="white"/>
<path d="M141.213 20.8259V34.3902C140.539 34.8048 139.775 35.1675 138.92 35.4784C138.065 35.7894 137.171 36.0485 136.238 36.2558C135.331 36.489 134.398 36.6574 133.44 36.761C132.507 36.8647 131.626 36.9165 130.797 36.9165C128.465 36.9165 126.379 36.5278 124.539 35.7505C122.725 34.9732 121.184 33.9238 119.914 32.6023C118.67 31.2809 117.712 29.7521 117.038 28.0161C116.39 26.2542 116.066 24.4016 116.066 22.4582C116.066 20.4113 116.416 18.5068 117.116 16.7449C117.841 14.983 118.826 13.4542 120.07 12.1587C121.339 10.8631 122.855 9.85262 124.617 9.12712C126.379 8.37571 128.309 8 130.408 8C132.947 8 135.02 8.32389 136.627 8.97166C138.233 9.59352 139.58 10.4615 140.669 11.5757L138.026 14.4129C136.886 13.3247 135.681 12.5733 134.411 12.1587C133.142 11.7182 131.807 11.498 130.408 11.498C128.827 11.498 127.402 11.7959 126.133 12.3919C124.863 12.9619 123.775 13.7392 122.868 14.7239C121.961 15.7085 121.262 16.8745 120.769 18.2218C120.277 19.5433 120.031 20.9554 120.031 22.4582C120.031 24.0129 120.303 25.4639 120.847 26.8113C121.391 28.1327 122.143 29.2858 123.101 30.2704C124.06 31.255 125.187 32.0323 126.483 32.6023C127.778 33.1465 129.19 33.4185 130.719 33.4185C132.04 33.4185 133.284 33.3019 134.45 33.0687C135.642 32.8096 136.653 32.4469 137.482 31.9805V24.3238H131.38V20.8259H141.213Z" fill="white"/>
<path d="M40.48 52.68V77.4H53.48V81H36.64V52.68H40.48ZM68.2622 81H63.7822L76.2622 52.68H79.7422L91.8622 81H87.3822L84.5422 74H71.0622L68.2622 81ZM77.7822 57.64L72.4222 70.64H83.1422L77.8622 57.64H77.7822ZM109.386 81H105.546V52.68H110.586L126.186 75.96H126.266V52.68H130.106V81H125.226L109.466 57.72H109.386V81ZM156.822 52.68C159.276 52.68 161.462 53.0933 163.382 53.92C165.329 54.72 166.876 55.8 168.022 57.16C169.169 58.52 170.036 60.0267 170.622 61.68C171.209 63.3333 171.502 65.0533 171.502 66.84C171.502 70.92 170.062 74.3067 167.182 77C164.329 79.6667 160.676 81 156.222 81H146.742V52.68H156.822ZM155.622 77.4C157.036 77.4 158.409 77.2 159.742 76.8C161.076 76.4 162.329 75.8 163.502 75C164.676 74.2 165.622 73.0933 166.342 71.68C167.062 70.2667 167.422 68.6533 167.422 66.84C167.422 63.9067 166.489 61.4133 164.622 59.36C162.756 57.3067 160.062 56.28 156.542 56.28H150.582V77.4H155.622Z" fill="#376AED"/>
</svg>
