<svg width="18" height="18" viewBox="0 0 18 18" fill="none" xmlns="http://www.w3.org/2000/svg">
<path fill-rule="evenodd" clip-rule="evenodd" d="M5.56 8.28C5.2949 8.28 5.08 8.4949 5.08 8.76C5.08 9.0251 5.2949 9.24 5.56 9.24L10.68 9.24L10.68 10.68C10.68 11.2746 10.68 11.5718 10.6406 11.8206C10.4237 13.1898 9.34985 14.2637 7.98059 14.4806C7.73185 14.52 7.43456 14.52 6.84 14.52C6.24544 14.52 5.94815 14.52 5.69941 14.4806C4.33015 14.2637 3.25627 13.1898 3.0394 11.8206C3 11.5718 3 11.2746 3 10.68L3 6.84C3 6.24544 3 5.94815 3.0394 5.69941C3.25627 4.33015 4.33015 3.25627 5.69941 3.0394C5.94815 3 6.24544 3 6.84 3C7.43456 3 7.73185 3 7.98059 3.0394C9.34985 3.25627 10.4237 4.33015 10.6406 5.69941C10.68 5.94815 10.68 6.24544 10.68 6.84L10.68 8.28L5.56 8.28ZM10.68 8.28L13.7587 8.28C13.5491 8.0735 13.2407 7.828 12.7901 7.47074L11.6618 6.57612C11.4541 6.41141 11.4192 6.1095 11.5839 5.90178C11.7486 5.69406 12.0505 5.65918 12.2582 5.82388L13.4094 6.73668C13.8398 7.07792 14.195 7.3595 14.448 7.61153C14.7076 7.87016 14.9228 8.15722 14.9813 8.52405C14.9937 8.6022 15 8.68103 15 8.76C15 8.83897 14.9937 8.9178 14.9813 8.99595C14.9228 9.36278 14.7076 9.64984 14.448 9.90847C14.195 10.1605 13.8398 10.4421 13.4095 10.7833L12.2582 11.6961C12.0505 11.8608 11.7486 11.8259 11.5839 11.6182C11.4192 11.4105 11.4541 11.1086 11.6618 10.9439L12.7901 10.0493C13.2407 9.692 13.5491 9.4465 13.7587 9.24L10.68 9.24L10.68 8.28Z" fill="#376AED"/>
</svg>
