<svg width="163" height="158" viewBox="0 0 163 158" fill="none" xmlns="http://www.w3.org/2000/svg">
<circle cx="83.5" cy="79.5" r="61.5" fill="#376AED"/>
<g clip-path="url(#clip0_33_4162)">
<path d="M88.0625 95.875C88.0625 97.3668 87.5291 98.7976 86.5797 99.8525C85.6303 100.907 84.3427 101.5 83 101.5C81.6573 101.5 80.3697 100.907 79.4203 99.8525C78.4709 98.7976 77.9375 97.3668 77.9375 95.875V94H88.0625V95.875ZM101.562 89.25C101.562 89.8023 101.115 90.25 100.562 90.25H65.4375C64.8852 90.25 64.4375 89.8023 64.4375 89.25V87.6602C64.4375 87.4131 64.5289 87.1748 64.6942 86.9912L69.0056 82.2006C69.3221 81.8491 69.4999 81.3722 69.5 80.875V73.375C69.5 69.3968 70.9223 65.5814 73.4541 62.7684C75.9858 59.9554 79.4196 58.375 83 58.375C86.5804 58.375 90.0142 59.9554 92.5459 62.7684C95.0777 65.5814 96.5 69.3968 96.5 73.375V80.875C96.5001 81.3722 96.6779 81.8491 96.9944 82.2006L101.306 86.9912C101.471 87.1748 101.562 87.4131 101.562 87.6602V89.25Z" fill="white"/>
</g>
<circle cx="17" cy="9" r="9" fill="#376AED"/>
<circle cx="156.5" cy="24.5" r="6.5" fill="#376AED"/>
<circle cx="93.5" cy="4.5" r="2.5" fill="#376AED"/>
<circle cx="1" cy="66" r="1" fill="#376AED"/>
<circle cx="8.5" cy="116.5" r="4.5" fill="#376AED"/>
<circle cx="54.5" cy="154.5" r="3.5" fill="#376AED"/>
<circle cx="145.5" cy="140.5" r="2.5" fill="#376AED"/>
<circle cx="152.5" cy="96.5" r="2.5" fill="#376AED"/>
<circle cx="107" cy="150" r="1" fill="#376AED"/>
<defs>
<clipPath id="clip0_33_4162">
<rect width="54" height="60" fill="white" transform="translate(56 49)"/>
</clipPath>
</defs>
</svg>
