<svg width="18" height="18" viewBox="0 0 18 18" fill="none" xmlns="http://www.w3.org/2000/svg">
<path d="M8.61001 1.25C6.2915 1.25 4.49765 3.28205 4.78522 5.58265L4.83941 6.01613C4.9187 6.65042 4.687 7.28399 4.21722 7.7175C3.24376 8.6158 2.97331 10.0456 3.5514 11.2374L3.62197 11.3828C4.16082 12.4937 5.28697 13.1991 6.52164 13.1991H12.1349C13.1998 13.1991 14.191 12.655 14.7628 11.7566C15.57 10.4883 15.3562 8.82451 14.2546 7.8015L14.2247 7.77367C13.7204 7.30535 13.4721 6.62308 13.5575 5.9402L13.6016 5.58724C13.8895 3.2842 12.0937 1.25 9.77277 1.25H8.61001Z" fill="#376AED"/>
<path d="M7.71104 14.4282C7.54134 14.2019 7.22035 14.156 6.99409 14.3257C6.76783 14.4954 6.72198 14.8164 6.89167 15.0427L7.09651 15.3158C8.22314 16.818 10.4764 16.818 11.603 15.3158L11.8079 15.0427C11.9776 14.8164 11.9317 14.4954 11.7055 14.3257C11.4792 14.156 11.1582 14.2019 10.9885 14.4282L10.7837 14.7013C10.0667 15.6572 8.63283 15.6572 7.91588 14.7013L7.71104 14.4282Z" fill="#376AED"/>
</svg>
