<svg width="12" height="16" viewBox="0 0 12 16" fill="none" xmlns="http://www.w3.org/2000/svg">
<path d="M0 5.5278C0 2.92197 0 1.61906 0.65901 0.809528C1.31802 0 2.37868 0 4.5 0H7.5C9.62132 0 10.682 0 11.341 0.809528C12 1.61906 12 2.92197 12 5.5278V11.8181C12 14.2902 12 15.5263 11.3668 15.9043C10.7336 16.2824 9.94234 15.5187 8.3599 13.9914L7.85346 13.5026C6.96368 12.6438 6.51879 12.2144 6 12.2144C5.48121 12.2144 5.03631 12.6438 4.14653 13.5026L3.6401 13.9914C2.05766 15.5187 1.26644 16.2824 0.63322 15.9043C0 15.5263 0 14.2902 0 11.8181V5.5278Z" fill="#0D253C"/>
</svg>
