<svg width="24" height="25" viewBox="0 0 24 25" fill="none" xmlns="http://www.w3.org/2000/svg">
<path d="M5.16835 10.7357C5.16835 7.00314 7.91352 3.91125 11.4965 3.36592C11.1271 3.30967 10.7488 3.28052 10.3637 3.28052C6.24312 3.28052 2.90271 6.61835 2.90271 10.7357C2.90271 14.8531 6.24312 18.191 10.3637 18.191C10.7488 18.191 11.1271 18.1618 11.4965 18.1055C7.91356 17.5602 5.16835 14.4683 5.16835 10.7357Z" fill="#D7DDEC"/>
<path d="M10.2422 18.9718C5.69744 18.9718 2 15.2772 2 10.7359C2 6.19459 5.69744 2.5 10.2422 2.5C14.787 2.5 18.4845 6.19459 18.4845 10.7359C18.4845 15.2772 14.787 18.9718 10.2422 18.9718ZM10.2422 4.0613C6.55901 4.0613 3.56251 7.0555 3.56251 10.7359C3.56251 14.4163 6.55901 17.4105 10.2422 17.4105C13.9255 17.4105 16.922 14.4163 16.922 10.7359C16.922 7.0555 13.9255 4.0613 10.2422 4.0613Z" fill="#7B8BB2"/>
<path d="M21.2189 22.5003C21.019 22.5003 20.819 22.4241 20.6664 22.2717L17.1703 18.7783C16.8653 18.4734 16.8653 17.9791 17.1703 17.6742C17.4755 17.3693 17.9701 17.3693 18.2752 17.6742L21.7713 21.1676C22.0764 21.4725 22.0764 21.9668 21.7713 22.2717C21.6188 22.4241 21.4188 22.5003 21.2189 22.5003Z" fill="#D7DDEC"/>
</svg>
