<svg width="14" height="18" viewBox="0 0 14 18" fill="none" xmlns="http://www.w3.org/2000/svg">
<path d="M1 6.5278C1 3.92197 1 2.61906 1.65901 1.80953C2.31802 1 3.37868 1 5.5 1H8.5C10.6213 1 11.682 1 12.341 1.80953C13 2.61906 13 3.92197 13 6.5278V12.8181C13 15.2902 13 16.5263 12.3668 16.9043C11.7336 17.2824 10.9423 16.5187 9.3599 14.9914L8.85346 14.5026C7.96368 13.6438 7.51879 13.2144 7 13.2144C6.48121 13.2144 6.03632 13.6438 5.14653 14.5026L4.6401 14.9914C3.05766 16.5187 2.26644 17.2824 1.63322 16.9043C1 16.5263 1 15.2902 1 12.8181V6.5278Z" stroke="#0D253C"/>
</svg>
