<svg width="24" height="24" viewBox="0 0 24 24" fill="none" xmlns="http://www.w3.org/2000/svg">
<path fill-rule="evenodd" clip-rule="evenodd" d="M8.4658 18.7638C8.24273 18.4625 8.26835 18.0327 8.55017 17.76C8.85017 17.46 9.34017 17.46 9.64017 17.76L11.2302 19.36V16.22H12.7702V19.36L14.3602 17.76L14.4464 17.6856C14.7477 17.4625 15.1774 17.4873 15.4502 17.76C15.6002 17.91 15.6802 18.11 15.6802 18.31C15.6802 18.5 15.6002 18.7 15.4502 18.85L12.5402 21.77L12.4495 21.8515C12.3202 21.9488 12.1602 22 12.0002 22C11.7902 22 11.6002 21.92 11.4502 21.77L8.54017 18.85L8.4658 18.7638ZM6.23116 16.2149C3.87791 16.1037 2 14.1242 2 11.7125V6.74742L2.00484 6.53491C2.1141 4.14007 4.06029 2.2198 6.45 2.2198H17.56L17.7688 2.22472C20.1221 2.33588 22 4.31573 22 6.73724V11.6922L21.9951 11.9055C21.8853 14.3091 19.93 16.2198 17.55 16.2198H12.77V10.1151L12.7629 10.0078C12.7112 9.6224 12.385 9.33172 12 9.33172C11.57 9.33172 11.23 9.67765 11.23 10.1151V16.2198H6.44L6.23116 16.2149Z" fill="#0D253C"/>
</svg>
