<svg width="18" height="18" viewBox="0 0 18 18" fill="none" xmlns="http://www.w3.org/2000/svg">
<path d="M15.5 6.5H11.291L12.1332 3.97475C12.2847 3.51875 12.2083 3.01325 11.927 2.62325C11.6458 2.23325 11.1898 2 10.709 2H9.5C9.27725 2 9.0665 2.099 8.92325 2.27L5.39825 6.5H3.5C2.67275 6.5 2 7.17275 2 8V14.75C2 15.5773 2.67275 16.25 3.5 16.25H13.4802C13.7854 16.249 14.0831 16.1554 14.3339 15.9816C14.5847 15.8077 14.7769 15.5619 14.885 15.2765L16.9528 9.76325C16.9841 9.67904 17.0001 9.58987 17 9.5V8C17 7.17275 16.3273 6.5 15.5 6.5ZM3.5 8H5V14.75H3.5V8ZM15.5 9.36425L13.4802 14.75H6.5V7.5215L9.851 3.5H10.7105L9.539 7.01225C9.50097 7.12499 9.49036 7.24516 9.50806 7.36282C9.52575 7.48048 9.57124 7.59222 9.64075 7.68878C9.71025 7.78535 9.80178 7.86395 9.90774 7.91807C10.0137 7.9722 10.131 8.00028 10.25 8H15.5V9.36425Z" fill="black"/>
</svg>
