<svg width="18" height="18" viewBox="0 0 18 18" fill="none" xmlns="http://www.w3.org/2000/svg">
<path d="M3.5 16.25H4.25V6.5H3.5C3.10218 6.5 2.72064 6.65804 2.43934 6.93934C2.15804 7.22064 2 7.60218 2 8V14.75C2 15.1478 2.15804 15.5294 2.43934 15.8107C2.72064 16.092 3.10218 16.25 3.5 16.25ZM15.5 6.5H10.25L11.0915 3.974C11.1666 3.74856 11.187 3.50851 11.1512 3.27362C11.1153 3.03872 11.0242 2.81571 10.8852 2.62295C10.7463 2.43018 10.5636 2.27318 10.3521 2.16488C10.1406 2.05657 9.90636 2.00006 9.66875 2H9.5L5.75 6.0785V16.25H14L16.934 9.803L17 9.5V8C17 7.60218 16.842 7.22064 16.5607 6.93934C16.2794 6.65804 15.8978 6.5 15.5 6.5Z" fill="#0D253C"/>
</svg>
